<svg xmlns="http://www.w3.org/2000/svg" viewBox="0 0 405.08 405.08"><defs><style>.cls-1{fill:#004719;}</style></defs><title>dashboard-icon</title><g id="Layer_3" data-name="Layer 3"><path class="cls-1" d="M378.81,363.4H24.17a4,4,0,0,1-4-4V36.94a4,4,0,0,1,4-4H378.81a4,4,0,0,1,4,4V359.4A4,4,0,0,1,378.81,363.4Zm-350.64-8H374.81V40.94H28.17Z"/><path class="cls-1" d="M284.57,195.69a60.3,60.3,0,1,1,60.3-60.3A60.37,60.37,0,0,1,284.57,195.69Zm0-112.59a52.3,52.3,0,1,0,52.3,52.29A52.35,52.35,0,0,0,284.57,83.1Z"/><path class="cls-1" d="M340.87,240.56H228.27a4,4,0,0,1,0-8h112.6a4,4,0,0,1,0,8Z"/><path class="cls-1" d="M340.87,278.1H228.27a4,4,0,1,1,0-8h112.6a4,4,0,0,1,0,8Z"/><path class="cls-1" d="M340.87,315.63H228.27a4,4,0,1,1,0-8h112.6a4,4,0,0,1,0,8Z"/><path class="cls-1" d="M56.34,316.05a4,4,0,0,1-4-4V137.41a4,4,0,0,1,8,0V312.05A4,4,0,0,1,56.34,316.05Z"/><path class="cls-1" d="M101.28,316.05a4,4,0,0,1-4-4v-143a4,4,0,0,1,8,0v143A4,4,0,0,1,101.28,316.05Z"/><path class="cls-1" d="M143.3,316.05a4,4,0,0,1-4-4V198a4,4,0,1,1,8,0V312.05A4,4,0,0,1,143.3,316.05Z"/><path class="cls-1" d="M180.43,316.05a4,4,0,0,1-4-4v-143a4,4,0,1,1,8,0v143A4,4,0,0,1,180.43,316.05Z"/></g></svg>