<svg xmlns="http://www.w3.org/2000/svg" viewBox="0 0 405.08 405.08"><defs><style>.cls-1{fill:#004719;}</style></defs><title>ranking-icon</title><g id="Layer_2" data-name="Layer 2"><path class="cls-1" d="M159.8,278.1a4,4,0,0,1-3.43-1.94l-23.16-38.43-45.9-11.79a4,4,0,0,1-3-4.37l5.39-43.73L60.26,143.69a4,4,0,0,1,0-5.23l29.53-34.21L85.85,59A4,4,0,0,1,89,54.69l46.72-9.83L157.32,6.11a4,4,0,0,1,5.24-1.65l39.93,19.39L245.61,6.39A4,4,0,0,1,250.5,8l23.16,37,41.86,10.84a4,4,0,0,1,3,4.19l-3.44,42.82,30.13,36.76a4,4,0,0,1-.07,5.14l-29.05,33.77L319,221.79a4,4,0,0,1-2.78,4.09l-44,14-22.71,36.38a4,4,0,0,1-4.77,1.64l-42-15.32-41.56,15.32A4,4,0,0,1,159.8,278.1Zm42.94-23.83a4,4,0,0,1,1.37.24l40.31,14.72,21.77-34.88a4,4,0,0,1,2.18-1.7l42.45-13.45L308,177.35a4,4,0,0,1,1-2.88L336.87,142l-29-35.41a4,4,0,0,1-.89-2.86l3.3-41.07L270.11,52.27a4.07,4.07,0,0,1-2.39-1.75L245.5,15.06,203.84,31.93a4,4,0,0,1-3.25-.11L162.47,13.3l-20.64,37a4,4,0,0,1-2.67,2l-45,9.48,3.78,43.45a4,4,0,0,1-1,3L68.57,141.08,97,174a4,4,0,0,1,.94,3.1l-5.18,42,44.08,11.32a4,4,0,0,1,2.43,1.81l22.29,37,39.84-14.69A4.15,4.15,0,0,1,202.74,254.27ZM138.34,48.39h0Z"/><path class="cls-1" d="M138.29,398.13a4,4,0,0,1-3.37-1.84L102,345l-61.34-2a4,4,0,0,1-3.36-6l63.44-112.83a4,4,0,0,1,7,3.92L47.48,335.19,104.34,337a4,4,0,0,1,3.24,1.84l30.59,47.67,61.08-102.2a4,4,0,0,1,6.87,4.1l-64.4,107.75a4,4,0,0,1-3.37,1.95Z"/><path class="cls-1" d="M266.29,398.13h0a4,4,0,0,1-3.45-2L186.9,264.83a4,4,0,0,1,6.92-4l72.49,125.34,27.85-47.68a4,4,0,0,1,3.4-2l62.18-.92L298.65,228.13a4,4,0,1,1,7-4L370,337.51a4,4,0,0,1-3.42,6l-66.68,1-30.19,51.67A4,4,0,0,1,266.29,398.13Z"/><path class="cls-1" d="M202.29,215.89a74.82,74.82,0,1,1,74.82-74.81A74.9,74.9,0,0,1,202.29,215.89Zm0-141.63a66.82,66.82,0,1,0,66.82,66.82A66.89,66.89,0,0,0,202.29,74.26Z"/></g></svg>