<svg id="Layer_4" data-name="Layer 4" xmlns="http://www.w3.org/2000/svg" viewBox="0 0 405.08 405.08"><defs><style>.cls-1{fill:#004719;}</style></defs><title>survey-icon</title><path class="cls-1" d="M326,390H79.12a4,4,0,0,1-4-4V19.09a4,4,0,0,1,4-4H326a4,4,0,0,1,4,4V386A4,4,0,0,1,326,390ZM83.12,382H322V23.09H83.12Z"/><path class="cls-1" d="M194,137.59H115.09a4,4,0,0,1-4-4V54.7a4,4,0,0,1,4-4H194a4,4,0,0,1,4,4v78.89A4,4,0,0,1,194,137.59Zm-74.89-8H190V58.7H119.09Z"/><path class="cls-1" d="M194,246H115.09a4,4,0,0,1-4-4V163.09a4,4,0,0,1,4-4H194a4,4,0,0,1,4,4V242A4,4,0,0,1,194,246Zm-74.89-8H190V167.09H119.09Z"/><path class="cls-1" d="M194,354.38H115.09a4,4,0,0,1-4-4V271.49a4,4,0,0,1,4-4H194a4,4,0,0,1,4,4v78.89A4,4,0,0,1,194,354.38Zm-74.89-8H190V275.49H119.09Z"/><path class="cls-1" d="M293.79,98.14H221a4,4,0,0,1,0-8h72.77a4,4,0,0,1,0,8Z"/><path class="cls-1" d="M293.79,206.54H216.43a4,4,0,0,1,0-8h77.36a4,4,0,0,1,0,8Z"/><path class="cls-1" d="M293.79,314.93H216.43a4,4,0,0,1,0-8h77.36a4,4,0,0,1,0,8Z"/></svg>