<svg xmlns="http://www.w3.org/2000/svg" width="12.745" height="8.5" viewBox="0 0 12.745 8.5">
  <path id="Icon_ionic-ios-arrow-round-forward" data-name="Icon ionic-ios-arrow-round-forward" d="M16,11.414a.578.578,0,0,0,0,.815l2.691,2.7H8.446a.575.575,0,0,0,0,1.151H18.685l-2.691,2.7a.583.583,0,0,0,0,.815.573.573,0,0,0,.81,0l3.648-3.674h0a.646.646,0,0,0,.12-.181.549.549,0,0,0,.044-.221.577.577,0,0,0-.164-.4l-3.648-3.674A.564.564,0,0,0,16,11.414Z" transform="translate(-7.875 -11.252)" fill="#fff" opacity="0.703"/>
</svg>
